<svg width="512" height="512" viewBox="0 0 512 512" fill="none" xmlns="http://www.w3.org/2000/svg">
<g clip-path="url(#clip0_702_563)">
<path d="M77.8876 72.0003C179.046 -25.9965 340.793 -23.3622 438.79 78.3227C449.854 63.5705 459.338 47.2377 466.187 30.378C498.326 128.375 517.82 210.566 510.443 274.316C506.755 328.057 485.681 379.689 450.908 420.785C360.287 528.265 199.066 541.964 91.586 451.343L89.5298 449.514L89.4205 449.442C89.0839 449.207 88.7519 448.963 88.4249 448.709C87.4438 447.945 86.5529 447.115 85.7523 446.228L85.4639 445.9L82.1025 442.913C78.8242 440.103 75.5459 437.293 72.6377 434.113L71.5652 432.903C-26.4316 331.745 -23.2705 169.997 77.8876 72.0003ZM115.822 414.989C106.338 407.613 92.6398 408.667 85.2637 418.15C78.7778 426.489 78.8097 438.087 85.3595 445.78L85.4639 445.9L89.5298 449.514L89.9288 449.785C99.138 455.841 111.528 454.589 118.596 446.03L118.983 445.547C126.359 436.064 124.779 422.365 115.822 414.989ZM463.552 56.7213C437.209 112.042 371.878 154.191 315.503 167.363C262.29 180.008 215.926 169.47 166.928 188.437C55.2324 231.113 57.3398 363.883 118.456 393.915L122.144 396.022C122.144 396.022 166.29 387.245 209.946 375.653L213.685 374.653C231.122 369.954 248.276 364.832 262.29 359.668C334.997 332.798 415.081 266.413 441.424 189.491C427.726 269.575 358.706 347.024 289.687 382.324C252.807 401.291 224.356 405.506 163.766 426.58C156.39 429.215 150.595 431.849 150.595 431.849C151.334 431.747 152.073 431.647 152.811 431.55L154.283 431.36L155.748 431.175C169.129 429.517 181.153 428.688 181.153 428.688C267.032 424.473 401.909 452.923 464.606 369.152C528.884 283.8 493.057 145.761 463.552 56.7213Z" fill="#6DB33F"/>
<path d="M115.823 414.989C124.779 422.365 126.36 436.064 118.984 445.547C111.608 455.031 97.9092 456.085 88.4256 448.709C78.9421 441.332 77.8883 427.634 85.2644 418.15C92.6405 408.667 106.339 407.613 115.823 414.989ZM463.553 56.7213C493.058 145.761 528.884 283.8 464.607 369.152C401.91 452.923 267.033 424.473 181.154 428.688C181.154 428.688 169.13 429.517 155.749 431.175L154.284 431.36C153.06 431.516 151.828 431.679 150.596 431.849C150.596 431.849 156.391 429.215 163.767 426.58C224.357 405.506 252.807 401.291 289.688 382.324C358.707 347.024 427.726 269.575 441.425 189.491C415.082 266.413 334.998 332.798 262.291 359.668C212.239 378.109 122.145 396.022 122.145 396.022L118.457 393.915C57.3406 363.883 55.2332 231.113 166.928 188.437C215.927 169.47 262.291 180.008 315.504 167.363C371.879 154.191 437.21 112.042 463.553 56.7213Z" fill="white"/>
</g>
<defs>
<clipPath id="clip0_702_563">
<rect width="512" height="512" fill="white"/>
</clipPath>
</defs>
</svg>
